<svg t="1731160063890" class="icon" viewBox="0 0 1024 1024" version="1.1" xmlns="http://www.w3.org/2000/svg" p-id="1083" id="mx_n_1731160063891" width="200" height="200"><path d="M632.4224 177.425067a16.984747 16.984747 0 0 1 16.9984 17.066666c0 4.5056-1.774933 8.874667-4.983467 12.0832-3.140267 3.140267-7.5776 4.983467-12.014933 4.983467s-8.874667-1.8432-12.014933-4.983467c-3.140267-3.208533-4.983467-7.5776-4.983467-12.0832s1.8432-8.874667 4.983467-12.0832c3.140267-3.140267 7.5776-4.983467 12.014933-4.983466zM743.901867 109.226667H280.029867c-2.594133 0-4.9152 1.501867-5.870934 3.8912l-27.170133 64.238933h317.371733c9.4208 0 16.9984 7.645867 16.9984 17.066667s-7.645867 17.066667-16.9984 17.066666H181.6576V286.72h660.6848V211.490133h-141.7216c-9.4208 0-16.9984-7.645867-16.9984-17.066666s7.645867-17.066667 16.9984-17.066667h76.458667l-27.170134-64.238933a6.38976 6.38976 0 0 0-5.870933-3.8912zM511.931733 525.312c-21.845333 0-42.325333 8.533333-57.821866 23.9616a81.599147 81.599147 0 0 0-23.9616 57.9584c0 10.513067 1.979733 20.753067 5.7344 30.242133 13.858133-27.989333 42.734933-47.3088 75.9808-47.3088 26.760533 0 48.7424-20.8896 50.5856-47.240533-14.336-11.400533-32.017067-17.6128-50.5856-17.6128z m75.9808 51.677867c-13.858133 27.989333-42.734933 47.3088-75.9808 47.3088-26.760533 0-48.7424 20.8896-50.5856 47.240533 14.336 11.400533 32.017067 17.6128 50.5856 17.6128 21.845333 0 42.325333-8.533333 57.821867-23.9616 15.428267-15.496533 23.9616-36.0448 23.9616-57.9584 0-10.513067-1.979733-20.753067-5.7344-30.242133zM511.931733 491.178667c30.9248 0 60.0064 12.0832 81.851734 33.9968 21.845333 21.9136 33.928533 51.063467 33.928533 82.056533s-12.014933 60.142933-33.928533 82.056533c-21.845333 21.9136-50.926933 33.9968-81.851734 33.9968s-60.0064-12.0832-81.851733-33.9968c-21.845333-21.9136-33.928533-51.063467-33.928533-82.056533s12.014933-60.142933 33.928533-82.056533c21.845333-21.9136 50.926933-33.9968 81.851733-33.9968z m0-34.133334c-82.602667 0-149.845333 67.3792-149.845333 150.186667s67.242667 150.186667 149.845333 150.186667 149.845333-67.3792 149.845334-150.186667-67.242667-150.186667-149.845334-150.186667z m0-34.133333c101.376 0 183.9104 82.670933 183.9104 184.32s-82.466133 184.32-183.9104 184.32-183.9104-82.670933-183.9104-184.32 82.466133-184.32 183.9104-184.32zM786.773333 320.853333H237.1584l80.827733 588.3904c0.4096 3.140267 3.140267 5.5296 6.3488 5.5296h375.3984c3.208533 0 5.870933-2.389333 6.3488-5.5296L786.909867 320.853333z m-42.939733-245.76a40.3456 40.3456 0 0 1 37.205333 24.712534l32.836267 77.550933h28.8768c18.500267 0 33.518933 15.086933 33.518933 33.5872v76.322133c0 18.500267-15.018667 33.5872-33.518933 33.5872h-21.640533l-81.5104 593.032534c-2.730667 19.933867-19.933867 35.0208-40.072534 35.0208H324.334933c-20.0704 0-37.341867-15.086933-40.072533-35.0208L202.752 320.853333h-21.640533c-18.500267 0-33.518933-15.086933-33.518934-33.5872V210.944c0-18.500267 15.018667-33.5872 33.518934-33.5872h28.8768l32.836266-77.550933A40.3456 40.3456 0 0 1 280.029867 75.093333h463.940266z" p-id="1084"></path></svg>
